<svg width="217" height="36" viewBox="0 0 217 36" fill="none" xmlns="http://www.w3.org/2000/svg">
<path d="M18.7969 25.7656C19.1406 24 18.1875 22.6328 15.9375 21.6641L12.0938 20.0703C6.70312 17.6484 4.14062 14.3516 4.40625 10.1797C4.51562 8.27344 5.17188 6.57812 6.375 5.09375C7.57812 3.59375 9.24219 2.42969 11.3672 1.60156C13.4922 0.773438 15.8125 0.375 18.3281 0.40625C21.7031 0.46875 24.4141 1.45313 26.4609 3.35938C28.5234 5.26562 29.5391 7.82031 29.5078 11.0234H21.5391C21.5859 9.71094 21.3047 8.66406 20.6953 7.88281C20.1016 7.08594 19.1172 6.67187 17.7422 6.64062C16.3984 6.60938 15.2109 6.92188 14.1797 7.57812C13.1484 8.23438 12.5391 9.11719 12.3516 10.2266C12.0547 11.7891 13.2109 13.0703 15.8203 14.0703C18.4453 15.0703 20.3516 15.9297 21.5391 16.6484C25.2734 18.8828 27.0234 21.8984 26.7891 25.6953C26.6641 27.6641 26.0312 29.3906 24.8906 30.875C23.75 32.3594 22.1641 33.5078 20.1328 34.3203C18.1172 35.1328 15.8516 35.5234 13.3359 35.4922C11.4922 35.4609 9.78125 35.1719 8.20312 34.625C6.625 34.0781 5.27344 33.2812 4.14844 32.2344C1.86719 30.125 0.773438 27.3516 0.867188 23.9141L8.90625 23.9375C8.8125 25.6875 9.14844 27.0156 9.91406 27.9219C10.6797 28.8125 11.9688 29.2578 13.7812 29.2578C15.125 29.2578 16.2422 28.9531 17.1328 28.3438C18.0391 27.7188 18.5938 26.8594 18.7969 25.7656ZM39.4688 23.4219L37.4531 35H29.4375L35.3438 0.875L47.6016 0.898438C51.3984 0.898438 54.3828 1.95312 56.5547 4.0625C58.7422 6.17188 59.7031 8.90625 59.4375 12.2656C59.25 14.5625 58.5156 16.5547 57.2344 18.2422C55.9531 19.9297 54.2578 21.2188 52.1484 22.1094C50.0547 23 47.7031 23.4453 45.0938 23.4453L39.4688 23.4219ZM40.5703 17.0703L45.3984 17.1172C47.4297 17.0703 48.9844 16.4141 50.0625 15.1484C51.1406 13.8672 51.5703 12.2969 51.3516 10.4375C51.2266 9.48437 50.8594 8.73437 50.25 8.1875C49.6562 7.625 48.8672 7.3125 47.8828 7.25L42.2812 7.22656L40.5703 17.0703ZM74.0859 35.4688C70.5391 35.3906 67.6953 34.2188 65.5547 31.9531C63.4141 29.6875 62.2031 26.6562 61.9219 22.8594C61.7656 20.9844 61.9141 18.7812 62.3672 16.25C62.8203 13.7031 63.625 11.3594 64.7812 9.21875C65.9375 7.07813 67.3828 5.29688 69.1172 3.875C72.0234 1.48438 75.3672 0.328125 79.1484 0.40625C81.4766 0.453125 83.5078 0.992188 85.2422 2.02344C86.9922 3.03906 88.3906 4.50781 89.4375 6.42969C90.4844 8.35156 91.0938 10.5391 91.2656 12.9922C91.3906 14.7266 91.2812 16.7031 90.9375 18.9219C90.6094 21.125 89.9922 23.2344 89.0859 25.25C88.1953 27.25 87.0391 29.0156 85.6172 30.5469C84.1953 32.0781 82.5156 33.2969 80.5781 34.2031C78.6562 35.0938 76.4922 35.5156 74.0859 35.4688ZM83.2266 12.9219C83.0703 9.01562 81.5547 6.98438 78.6797 6.82812C76.4609 6.71875 74.625 7.60156 73.1719 9.47656C71.7188 11.3359 70.7578 14.0859 70.2891 17.7266C69.9922 19.9766 69.8828 21.7188 69.9609 22.9531C70.1172 26.9219 71.6484 28.9609 74.5547 29.0703C76.4609 29.1641 78.1016 28.4844 79.4766 27.0312C80.8516 25.5625 81.8438 23.4375 82.4531 20.6562C83.0625 17.8594 83.3203 15.2812 83.2266 12.9219ZM106.969 22.9531H102.516L100.406 35H92.3906L98.2969 0.875L110.344 0.898438C114.203 0.898438 117.172 1.80469 119.25 3.61719C121.344 5.41406 122.281 7.875 122.062 11C121.891 13.4688 121.18 15.5156 119.93 17.1406C118.68 18.75 116.93 20.0234 114.68 20.9609L119.273 34.6016V35H110.719L106.969 22.9531ZM103.594 16.6016L108.281 16.6484C109.562 16.6484 110.672 16.3359 111.609 15.7109C112.562 15.0859 113.242 14.2344 113.648 13.1562C114.055 12.0625 114.172 11.0078 114 9.99219C113.688 8.25781 112.578 7.34375 110.672 7.25L105.234 7.22656L103.594 16.6016ZM152.672 7.22656H142.734L137.93 35H129.891L134.719 7.22656H124.945L126.07 0.875H153.773L152.672 7.22656ZM169.781 25.7656C170.125 24 169.172 22.6328 166.922 21.6641L163.078 20.0703C157.688 17.6484 155.125 14.3516 155.391 10.1797C155.5 8.27344 156.156 6.57812 157.359 5.09375C158.562 3.59375 160.227 2.42969 162.352 1.60156C164.477 0.773438 166.797 0.375 169.312 0.40625C172.688 0.46875 175.398 1.45313 177.445 3.35938C179.508 5.26562 180.523 7.82031 180.492 11.0234H172.523C172.57 9.71094 172.289 8.66406 171.68 7.88281C171.086 7.08594 170.102 6.67187 168.727 6.64062C167.383 6.60938 166.195 6.92188 165.164 7.57812C164.133 8.23438 163.523 9.11719 163.336 10.2266C163.039 11.7891 164.195 13.0703 166.805 14.0703C169.43 15.0703 171.336 15.9297 172.523 16.6484C176.258 18.8828 178.008 21.8984 177.773 25.6953C177.648 27.6641 177.016 29.3906 175.875 30.875C174.734 32.3594 173.148 33.5078 171.117 34.3203C169.102 35.1328 166.836 35.5234 164.32 35.4922C162.477 35.4609 160.766 35.1719 159.188 34.625C157.609 34.0781 156.258 33.2812 155.133 32.2344C152.852 30.125 151.758 27.3516 151.852 23.9141L159.891 23.9375C159.797 25.6875 160.133 27.0156 160.898 27.9219C161.664 28.8125 162.953 29.2578 164.766 29.2578C166.109 29.2578 167.227 28.9531 168.117 28.3438C169.023 27.7188 169.578 26.8594 169.781 25.7656Z" fill="white"/>
<path d="M209.133 15.6406H216.891L215.719 22.4141H207.984L206.367 31.5781H199.172L200.766 22.4141H192.984L194.156 15.6406H201.938L203.484 6.73438H210.68L209.133 15.6406Z" fill="#FFDC34"/>
</svg>
