<svg width="112" height="112" viewBox="0 0 112 112" fill="none" xmlns="http://www.w3.org/2000/svg">
<path fill-rule="evenodd" clip-rule="evenodd" d="M56 112C86.9279 112 112 86.9279 112 56C112 25.0721 86.9279 0 56 0C25.0721 0 0 25.0721 0 56C0 86.9279 25.0721 112 56 112ZM76.8261 52.5675L76.8281 52.5686L77.0427 52.6879L79.8559 54.252C81.2268 55.0142 81.2268 56.9858 79.8559 57.748L77.0427 59.3121L76.8281 59.4314L76.8261 59.4325L45.4718 76.8644C44.1388 77.6056 42.5 76.6417 42.5 75.1164V36.8836C42.5 35.3583 44.1388 34.3944 45.4718 35.1356L76.8261 52.5675ZM48.5 43.6841L70.6522 56L48.5 68.3159V43.6841Z" fill="white"/>
</svg>
